<?xml version="1.0" encoding="UTF-8" standalone="no"?>
<!-- Created with Inkscape (http://www.inkscape.org/) -->

<svg
   xmlns:dc="http://purl.org/dc/elements/1.1/"
   xmlns:cc="http://creativecommons.org/ns#"
   xmlns:rdf="http://www.w3.org/1999/02/22-rdf-syntax-ns#"
   xmlns:svg="http://www.w3.org/2000/svg"
   xmlns="http://www.w3.org/2000/svg"
   xmlns:sodipodi="http://sodipodi.sourceforge.net/DTD/sodipodi-0.dtd"
   xmlns:inkscape="http://www.inkscape.org/namespaces/inkscape"
   width="720.32538"
   height="720.32538"
   id="svg2"
   version="1.1"
   inkscape:version="0.47 r22583"
   sodipodi:docname="essai.svg">
  <defs
     id="defs4">
    <inkscape:perspective
       sodipodi:type="inkscape:persp3d"
       inkscape:vp_x="0 : 526.18109 : 1"
       inkscape:vp_y="0 : 1000 : 0"
       inkscape:vp_z="744.09448 : 526.18109 : 1"
       inkscape:persp3d-origin="372.04724 : 350.78739 : 1"
       id="perspective10" />
    <filter
       inkscape:collect="always"
       id="filter4142"
       color-interpolation-filters="sRGB">
      <feGaussianBlur
         inkscape:collect="always"
         stdDeviation="1.6674107"
         id="feGaussianBlur4144" />
    </filter>
  </defs>
  <sodipodi:namedview
     id="base"
     pagecolor="#ffffff"
     bordercolor="#666666"
     borderopacity="1.0"
     inkscape:pageopacity="0.0"
     inkscape:pageshadow="2"
     inkscape:zoom="0.35"
     inkscape:cx="137.59769"
     inkscape:cy="82.620576"
     inkscape:document-units="px"
     inkscape:current-layer="layer1"
     showgrid="false"
     inkscape:window-width="1920"
     inkscape:window-height="1127"
     inkscape:window-x="0"
     inkscape:window-y="25"
     inkscape:window-maximized="1"
     inkscape:showpageshadow="false" />
  <metadata
     id="metadata7">
    <rdf:RDF>
      <cc:Work
         rdf:about="">
        <dc:format>image/svg+xml</dc:format>
        <dc:type
           rdf:resource="http://purl.org/dc/dcmitype/StillImage" />
        <dc:title></dc:title>
      </cc:Work>
    </rdf:RDF>
  </metadata>
  <g
     inkscape:label="Layer 1"
     inkscape:groupmode="layer"
     id="layer1"
     transform="translate(-25.551619,-123.62805)">
    <path
       transform="matrix(1.1116071,0,0,1.1116071,750.95665,85.750386)"
       style="fill:#ffffff;fill-opacity:1;stroke:#000000;stroke-width:40;stroke-miterlimit:4;stroke-opacity:1;filter:url(#filter4142)"
       d="m -28.571442,358.07648 c 0,165.68542 -134.314578,300 -299.999998,300 -165.68543,0 -300,-134.31458 -300,-300 0,-165.68543 134.31457,-300.000003 300,-300.000003 165.68542,0 299.999998,134.314573 299.999998,300.000003 z"
       id="path2824" />
    <path
       id="path2861"
       style="font-size:760.30541992px;font-style:normal;font-variant:normal;font-weight:normal;font-stretch:normal;text-align:start;line-height:100%;writing-mode:lr-tb;text-anchor:start;fill:#000000;fill-opacity:1;stroke:none;filter:url(#filter4142);font-family:Times New Roman;-inkscape-font-specification:'Times New Roman,'"
       d="m 567.06645,308.56408 0,54.20146 -86.12835,0 -7.42485,112.85784 c -1.48525,19.55227 -2.22773,36.50568 -2.22746,50.86027 -2.7e-4,34.40193 3.95965,55.439 11.87977,63.11129 8.16705,7.42491 17.9431,11.13733 29.32819,11.13729 23.75921,4e-5 37.86642,-14.9734 42.32169,-44.92039 l 13.36474,0 c -8.1677,68.8037 -35.63965,103.20551 -82.41592,103.20552 -21.77985,-1e-5 -39.35199,-6.68238 -52.71649,-20.04712 -13.11747,-13.36472 -19.67609,-33.16432 -19.67587,-59.39886 -2.2e-4,-17.32458 2.59848,-53.95384 7.7961,-109.88789 l 10.02356,-106.91795 -78.70349,0 c -5.19755,90.08847 -11.50867,155.92214 -18.93339,197.50121 -7.17749,41.57925 -15.22108,68.43246 -24.13079,80.55971 -8.66243,12.12726 -20.54219,18.19089 -35.63931,18.1909 -11.38485,-1e-5 -21.03715,-3.34119 -28.95695,-10.02356 -7.67239,-6.68236 -11.50856,-15.46844 -11.50853,-26.35824 -3e-5,-10.39477 6.68233,-24.62573 20.04712,-42.69293 19.55205,-26.23441 34.15425,-53.45886 43.80666,-81.67344 9.6522,-28.46177 16.95331,-73.62961 21.90333,-135.50365 l -25.24452,0 c -20.29468,2.9e-4 -35.88687,4.57894 -46.7766,13.73599 -10.64233,8.91009 -20.78963,21.77983 -30.44192,38.60926 l -13.36474,0 c 7.17735,-26.48174 16.45841,-48.2613 27.84322,-65.33875 11.38473,-17.07686 23.017,-28.21413 34.89683,-33.41186 12.12718,-5.19706 33.5355,-7.79576 64.22501,-7.7961 l 236.85296,0" />
  </g>
</svg>
